<svg id="stripe" xmlns="http://www.w3.org/2000/svg" viewBox="0 0 1022.1 425.97"><defs><style>.cls-1{fill:#fff;}.cls-2{fill:#fadbda;}.cls-3{fill:#e5d8c9;}.cls-4{fill:#cdc3c1;}.cls-5{fill:#bce1df;}.cls-6{fill:#cce3f6;}.cls-7{fill:#dcc6df;}.cls-8{opacity:.5;}</style></defs><g><g class="cls-8"><rect class="cls-1" width="20.86" height="425.97"/><rect class="cls-4" x="20.86" width="20.86" height="425.97"/></g><g class="cls-8"><rect class="cls-5" x="41.72" width="20.86" height="425.97"/><rect class="cls-7" x="62.58" width="20.86" height="425.97"/><rect class="cls-1" x="83.44" width="20.86" height="425.97"/></g></g><g><rect class="cls-1" x="83.44" width="438.04" height="425.97"/><g class="cls-8"><rect class="cls-1" x="83.44" width="20.86" height="425.97"/><rect class="cls-7" x="104.3" width="20.86" height="425.97"/><rect class="cls-2" x="125.16" width="20.86" height="425.97"/></g><g class="cls-8"><rect class="cls-4" x="146.01" width="20.86" height="425.97"/><rect class="cls-1" x="166.87" width="20.86" height="425.97"/><rect class="cls-4" x="187.73" width="20.86" height="425.97"/></g><g class="cls-8"><rect class="cls-5" x="208.59" width="20.86" height="425.97"/><rect class="cls-7" x="229.45" width="20.86" height="425.97"/><rect class="cls-1" x="250.31" width="20.86" height="425.97"/></g><g class="cls-8"><rect class="cls-6" x="271.17" width="20.86" height="425.97"/><rect class="cls-2" x="292.03" width="20.86" height="425.97"/><rect class="cls-4" x="312.89" width="20.86" height="425.97"/></g><g class="cls-8"><rect class="cls-1" x="333.75" width="20.86" height="425.97"/><rect class="cls-7" x="354.61" width="20.86" height="425.97"/><rect class="cls-3" x="375.47" width="20.86" height="425.97"/></g><g class="cls-8"><rect class="cls-6" x="396.33" width="20.86" height="425.97"/><rect class="cls-1" x="417.19" width="20.86" height="425.97"/><rect class="cls-4" x="438.04" width="20.86" height="425.97"/></g><g class="cls-8"><rect class="cls-5" x="458.9" width="20.86" height="425.97"/><rect class="cls-7" x="479.76" width="20.86" height="425.97"/><rect class="cls-1" x="500.62" width="20.86" height="425.97"/></g></g><g><rect class="cls-1" x="500.62" width="438.04" height="425.97"/><g class="cls-8"><rect class="cls-1" x="500.62" width="20.86" height="425.97"/><rect class="cls-7" x="521.48" width="20.86" height="425.97"/><rect class="cls-2" x="542.34" width="20.86" height="425.97"/></g><g class="cls-8"><rect class="cls-4" x="563.2" width="20.86" height="425.97"/><rect class="cls-1" x="584.06" width="20.86" height="425.97"/><rect class="cls-4" x="604.92" width="20.86" height="425.97"/></g><g class="cls-8"><rect class="cls-5" x="625.78" width="20.86" height="425.97"/><rect class="cls-7" x="646.64" width="20.86" height="425.97"/><rect class="cls-1" x="667.5" width="20.86" height="425.97"/></g><g class="cls-8"><rect class="cls-6" x="688.36" width="20.86" height="425.97"/><rect class="cls-2" x="709.21" width="20.86" height="425.97"/><rect class="cls-4" x="730.07" width="20.86" height="425.97"/></g><g class="cls-8"><rect class="cls-1" x="750.93" width="20.86" height="425.97"/><rect class="cls-7" x="771.79" width="20.86" height="425.97"/><rect class="cls-3" x="792.65" width="20.86" height="425.97"/></g><g class="cls-8"><rect class="cls-6" x="813.51" width="20.86" height="425.97"/><rect class="cls-1" x="834.37" width="20.86" height="425.97"/><rect class="cls-4" x="855.23" width="20.86" height="425.97"/></g><g class="cls-8"><rect class="cls-5" x="876.09" width="20.86" height="425.97"/><rect class="cls-7" x="896.95" width="20.86" height="425.97"/><rect class="cls-1" x="917.81" width="20.86" height="425.97"/></g></g><g><g class="cls-8"><rect class="cls-1" x="917.81" width="20.86" height="425.97"/><rect class="cls-7" x="938.67" width="20.86" height="425.97"/><rect class="cls-2" x="959.53" width="20.86" height="425.97"/></g><g class="cls-8"><rect class="cls-4" x="980.39" width="20.86" height="425.97"/><rect class="cls-1" x="1001.24" width="20.86" height="425.97"/></g></g></svg>